# xmcd
# 
# Track frame offsets:
#     150
#     19324
#     42384
#     64639
#     81585
#     101809
#     128585
#     145017
#     168115
#     188495
# 
# Disc length: 2818
# 
# Revision: 0
# Processed by: cddbd v1.5.2PL0 Copyright (c) Steve Scherf et al.
# Submitted via: fre:ac v1.0.31
# 
DISCID=800b000a
DTITLE=VOYAGER - アーリー古川もとあき@80's Collection vol.1
DYEAR=1986
DGENRE=Fusion
TTITLE0=Waving in the breaze
TTITLE1=Still Love You
TTITLE2=On the line
TTITLE3=Congratulation
TTITLE4=Heart Beat
TTITLE5=Night walker
TTITLE6=Shining in my dream
TTITLE7=Yoisho!
TTITLE8=罪な人
TTITLE9=Dream of morning
EXTD=mapr-0014
EXTT0=
EXTT1=
EXTT2=
EXTT3=
EXTT4=
EXTT5=
EXTT6=
EXTT7=
EXTT8=
EXTT9=
PLAYORDER=
